<svg width="15" height="15" viewBox="0 0 15 15" fill="none" xmlns="http://www.w3.org/2000/svg">
<g id="icon_&#232;&#175;&#166;&#230;&#131;&#133;_&#229;&#175;&#188;&#232;&#136;&#170;">
<path id="Vector" d="M8.08031 13.7454C8.0598 13.7454 8.0393 13.7454 8.02025 13.744C7.22777 13.7191 6.55394 13.2166 6.30492 12.4652L5.45531 9.90608C5.40111 9.74348 5.27221 9.61458 5.10961 9.56038L2.48461 8.6888C1.73754 8.44124 1.23656 7.7718 1.2058 6.98665C1.17504 6.20003 1.62474 5.49544 2.34984 5.19075L10.7844 1.65022C11.4934 1.35286 12.2742 1.50374 12.8205 2.0428C13.3684 2.58333 13.5295 3.36116 13.241 4.07307L9.81176 12.575C9.52318 13.2913 8.84789 13.7454 8.08031 13.7454ZM7.56029 12.0477C7.67162 12.3831 7.97191 12.4183 8.06127 12.4212C8.15355 12.4183 8.45238 12.408 8.58422 12.0799L12.0149 3.57796C12.1409 3.26448 11.9534 3.04475 11.8918 2.98469C11.8318 2.92464 11.6091 2.7386 11.2971 2.87044L2.86254 6.41096C2.53881 6.54719 2.52416 6.84602 2.52855 6.93538C2.53148 7.02473 2.56957 7.3221 2.90209 7.43196L5.52562 8.30354C6.08226 8.48811 6.52465 8.93196 6.71068 9.4886L7.56029 12.0477Z" fill="#2A57C9"/>
</g>
</svg>
