<svg width="90" height="91" viewBox="0 0 90 91" fill="none" xmlns="http://www.w3.org/2000/svg">
<g id="iocn_&#231;&#133;&#167;&#231;&#137;&#135;">
<rect id="Rectangle 34624203" width="90" height="91" rx="10" fill="#2A57C9" fill-opacity="0.1"/>
<g id="Frame">
<path id="Vector" d="M50.6227 34C51.1213 34 51.6067 34.1596 52.0078 34.4555C52.409 34.7514 52.7049 35.1681 52.8521 35.6443L53.5801 38H55.6667C57.6917 38 59.3334 39.6417 59.3334 41.6667V55C59.3334 57.025 57.6917 58.6667 55.6667 58.6667H36.3334C34.3084 58.6667 32.6667 57.025 32.6667 55V41.6667C32.6667 39.6417 34.3084 38 36.3334 38H38.4201L39.1481 35.6443C39.2953 35.1681 39.5911 34.7514 39.9923 34.4555C40.3935 34.1596 40.8789 34 41.3774 34H50.6227ZM46.0001 42.6667C43.2387 42.6667 41.0001 44.9053 41.0001 47.6667C41.0001 50.428 43.2387 52.6667 46.0001 52.6667C48.7614 52.6667 51.0001 50.428 51.0001 47.6667C51.0001 44.9053 48.7614 42.6667 46.0001 42.6667ZM46.0001 50.6667C46.7957 50.6667 47.5588 50.3506 48.1214 49.788C48.684 49.2254 49.0001 48.4623 49.0001 47.6667C49.0001 46.871 48.684 46.108 48.1214 45.5453C47.5588 44.9827 46.7957 44.6667 46.0001 44.6667C45.2044 44.6667 44.4414 44.9827 43.8788 45.5453C43.3162 46.108 43.0001 46.871 43.0001 47.6667C43.0001 48.4623 43.3162 49.2254 43.8788 49.788C44.4414 50.3506 45.2044 50.6667 46.0001 50.6667Z" fill="#2A57C9" fill-opacity="0.7"/>
</g>
</g>
</svg>
