<svg width="16" height="16" viewBox="0 0 16 16" fill="none" xmlns="http://www.w3.org/2000/svg">
<g id="icon_&#230;&#181;&#143;&#232;&#167;&#136;">
<path id="Vector" d="M8 13C5.5555 13 3.37467 11.4573 1.46233 8.44367C1.37805 8.31104 1.33328 8.15715 1.33328 8C1.33328 7.84285 1.37805 7.68896 1.46233 7.55633C3.37467 4.54267 5.5555 3 8 3C10.4445 3 12.6253 4.54267 14.5377 7.55633C14.622 7.68896 14.6667 7.84285 14.6667 8C14.6667 8.15715 14.622 8.31104 14.5377 8.44367C12.6253 11.4573 10.4445 13 8 13ZM8 4C5.97633 4 4.10217 5.31017 2.37317 8C4.10217 10.6898 5.97633 12 8 12C10.0237 12 11.8978 10.6898 13.6268 8C11.8978 5.31017 10.0237 4 8 4ZM8 10.3333C6.69983 10.3333 5.64583 9.28867 5.64583 8C5.64583 6.71133 6.69983 5.66667 8 5.66667C9.30017 5.66667 10.3542 6.71133 10.3542 8C10.3542 9.28867 9.30017 10.3333 8 10.3333ZM8 9.33333C8.743 9.33333 9.34533 8.73633 9.34533 8C9.34533 7.26367 8.743 6.66667 8 6.66667C7.257 6.66667 6.65467 7.26367 6.65467 8C6.65467 8.73633 7.257 9.33333 8 9.33333Z" fill="#999999"/>
</g>
</svg>
