<svg width="90" height="90" viewBox="0 0 90 90" fill="none" xmlns="http://www.w3.org/2000/svg">
<g id="icon_&#232;&#167;&#134;&#233;&#162;&#145;">
<rect id="Rectangle 34624203" width="90" height="90" rx="10" fill="#2A57C9" fill-opacity="0.1"/>
<g id="Frame">
<path id="Vector" d="M31.6375 44.824C31.6375 37.5409 37.5412 31.6372 44.8243 31.6372C52.1073 31.6372 58.0111 37.5409 58.0111 44.824C58.0123 47.0689 57.4399 49.2769 56.3483 51.2386C55.2567 53.2002 53.6821 54.8505 51.7737 56.0328H57.0221C57.2844 56.0328 57.5359 56.137 57.7214 56.3225C57.9069 56.508 58.0111 56.7595 58.0111 57.0218C58.0111 57.2841 57.9069 57.5357 57.7214 57.7212C57.5359 57.9066 57.2844 58.0108 57.0221 58.0108H44.8243C37.5412 58.0108 31.6375 52.1071 31.6375 44.824ZM44.8243 40.868C45.3489 40.868 45.852 40.6596 46.2229 40.2886C46.5939 39.9177 46.8023 39.4146 46.8023 38.89C46.8023 38.3653 46.5939 37.8622 46.2229 37.4913C45.852 37.1203 45.3489 36.9119 44.8243 36.9119C44.2997 36.9119 43.7965 37.1203 43.4256 37.4913C43.0546 37.8622 42.8462 38.3653 42.8462 38.89C42.8462 39.4146 43.0546 39.9177 43.4256 40.2886C43.7965 40.6596 44.2997 40.868 44.8243 40.868ZM44.8243 52.7361C45.3489 52.7361 45.852 52.5277 46.2229 52.1568C46.5939 51.7858 46.8023 51.2827 46.8023 50.7581C46.8023 50.2335 46.5939 49.7304 46.2229 49.3594C45.852 48.9885 45.3489 48.7801 44.8243 48.7801C44.2997 48.7801 43.7965 48.9885 43.4256 49.3594C43.0546 49.7304 42.8462 50.2335 42.8462 50.7581C42.8462 51.2827 43.0546 51.7858 43.4256 52.1568C43.7965 52.5277 44.2997 52.7361 44.8243 52.7361ZM38.8902 42.846C38.3656 42.846 37.8625 43.0544 37.4915 43.4253C37.1206 43.7963 36.9122 44.2994 36.9122 44.824C36.9122 45.3486 37.1206 45.8517 37.4915 46.2227C37.8625 46.5936 38.3656 46.802 38.8902 46.802C39.4148 46.802 39.9179 46.5936 40.2889 46.2227C40.6598 45.8517 40.8682 45.3486 40.8682 44.824C40.8682 44.2994 40.6598 43.7963 40.2889 43.4253C39.9179 43.0544 39.4148 42.846 38.8902 42.846ZM52.7364 44.824C52.7364 44.2994 52.528 43.7963 52.157 43.4253C51.7861 43.0544 51.2829 42.846 50.7583 42.846C50.2337 42.846 49.7306 43.0544 49.3597 43.4253C48.9887 43.7963 48.7803 44.2994 48.7803 44.824C48.7803 45.3486 48.9887 45.8517 49.3597 46.2227C49.7306 46.5936 50.2337 46.802 50.7583 46.802C51.2829 46.802 51.7861 46.5936 52.157 46.2227C52.528 45.8517 52.7364 45.3486 52.7364 44.824Z" fill="#2A57C9" fill-opacity="0.7"/>
</g>
</g>
</svg>
