<svg width="26" height="25" viewBox="0 0 26 25" fill="none" xmlns="http://www.w3.org/2000/svg">
<g id="icon_&#228;&#184;&#170;&#228;&#186;&#186;&#228;&#184;&#173;&#229;&#191;&#131;">
<path id="Vector" d="M12.9463 23.3472C11.479 23.3472 10.0557 23.0591 8.71533 22.4927C7.42139 21.9458 6.25928 21.1621 5.26074 20.1636C4.26221 19.165 3.47852 18.0029 2.93164 16.709C2.36523 15.3687 2.07715 13.9453 2.07715 12.478C2.07715 11.0107 2.36523 9.5874 2.93164 8.24707C3.47852 6.95313 4.26221 5.79102 5.26074 4.79248C6.25928 3.79395 7.42139 3.01025 8.71533 2.46338C10.0557 1.89697 11.479 1.60889 12.9463 1.60889C14.4136 1.60889 15.8369 1.89697 17.1772 2.46338C18.4712 3.01025 19.6333 3.79395 20.6318 4.79248C21.6304 5.79102 22.4141 6.95313 22.9609 8.24707C23.5273 9.5874 23.8154 11.0107 23.8154 12.478C23.8154 13.9453 23.5273 15.3687 22.9609 16.709C22.4141 18.0029 21.6304 19.165 20.6318 20.1636C19.6333 21.1621 18.4712 21.9458 17.1772 22.4927C15.8369 23.0615 14.4111 23.3472 12.9463 23.3472ZM12.9463 3.6084C8.05615 3.6084 4.07666 7.58789 4.07666 12.478C4.07666 17.3682 8.05615 21.3477 12.9463 21.3477C17.8364 21.3477 21.8135 17.3682 21.8135 12.478C21.8135 7.58789 17.8364 3.6084 12.9463 3.6084Z" fill="currentColor"/>
<path id="Vector_2" d="M12.9463 18.5596C11.3008 18.5596 9.81152 17.5195 9.23779 15.9741C9.04492 15.4565 9.30859 14.8804 9.82861 14.6875C10.3462 14.4946 10.9224 14.7583 11.1152 15.2783C11.3984 16.0449 12.1357 16.56 12.9487 16.56C13.769 16.56 14.5063 16.04 14.7871 15.2637C14.9751 14.7436 15.5488 14.4751 16.0688 14.6631C16.5889 14.8511 16.8574 15.4248 16.6694 15.9448C16.1006 17.5073 14.604 18.5596 12.9463 18.5596Z" fill="currentColor"/>
</g>
</svg>
