<svg width="16" height="16" viewBox="0 0 16 16" fill="none" xmlns="http://www.w3.org/2000/svg">
<g id="icon_&#229;&#173;&#166;&#229;&#142;&#134;" clip-path="url(#clip0_205_146)">
<path id="Vector" d="M15.5517 4.54485C13.1468 3.4929 10.7534 2.49168 8.35337 1.43646C8.11296 1.33693 7.84287 1.33693 7.60245 1.43646C5.25317 2.48677 2.85808 3.488 0.503886 4.48759C0.253579 4.59229 0 4.68881 0 5.04219C0 5.39556 0.250307 5.49372 0.500614 5.59352C2.70266 6.54403 4.90798 7.44219 7.10348 8.44178C7.36751 8.60142 7.67018 8.68581 7.97873 8.68581C8.28728 8.68581 8.58995 8.60142 8.85399 8.44178C9.17282 8.26175 9.5074 8.11116 9.85358 7.99188C11.2524 7.39311 12.5971 6.79106 14.0532 6.19229V11.2475C14.0532 11.5469 14.153 11.6467 14.4524 11.6467C14.7517 11.6467 14.8532 11.596 14.8532 11.2475C14.8532 9.74566 14.9039 8.19638 14.8025 6.69781C14.8025 6.09904 14.9022 5.69822 15.5517 5.5428C15.6767 5.53281 15.7931 5.47537 15.8771 5.38229C15.961 5.2892 16.0062 5.16751 16.0033 5.04219C16.0033 4.74444 15.802 4.64301 15.5517 4.54485Z" fill="#FFA01C"/>
<path id="Vector_2" d="M13.052 7.94111C13.052 7.59101 12.9522 7.59101 12.7035 7.6908C11.3522 8.29121 10.0041 8.84745 8.70349 9.44132C8.48354 9.54004 8.24519 9.59107 8.0041 9.59107C7.76301 9.59107 7.52466 9.54004 7.30471 9.44132C5.95338 8.84254 4.60533 8.2863 3.26054 7.6908C3.01023 7.59101 2.95952 7.64009 2.95952 7.89039V9.89121C2.88019 10.4748 3.00644 11.0677 3.3166 11.5683C3.62675 12.0689 4.10149 12.446 4.65931 12.6348C5.7308 13.1498 6.90729 13.4089 8.09602 13.3916C9.28474 13.3743 10.4532 13.081 11.5092 12.535C12.0207 12.3218 12.4487 11.9478 12.7286 11.4696C13.0084 10.9914 13.1248 10.435 13.0601 9.88467C13.0094 9.24172 13.052 8.5906 13.052 7.94111Z" fill="#FFA01C" fill-opacity="0.5"/>
</g>
<defs>
<clipPath id="clip0_205_146">
<rect width="16" height="16" fill="white"/>
</clipPath>
</defs>
</svg>
