<svg width="16" height="16" viewBox="0 0 16 16" fill="none" xmlns="http://www.w3.org/2000/svg">
<g id="icon_&#228;&#188;&#129;&#228;&#184;&#154;">
<path id="Vector" d="M14.25 13.5328V6.93016C14.25 6.60003 14.025 6.2699 13.65 6.15986L9.3375 4.80266C8.5875 4.58257 7.875 5.09611 7.875 5.86641V13.5328H7.125V1.79481C7.125 1.24459 6.4875 0.8411 5.925 1.06119L1.275 3.15201C0.975 3.26205 0.75 3.5555 0.75 3.84895V13.5328C0.3375 13.5328 0 13.8629 0 14.2664C0 14.6699 0.3375 15 0.75 15H14.25C14.6625 15 15 14.6699 15 14.2664C15 13.8629 14.6625 13.5328 14.25 13.5328ZM9.75 9.13103H12C12.4125 9.13103 12.75 9.46116 12.75 9.86465C12.75 10.2681 12.4125 10.5983 12 10.5983H9.75C9.3375 10.5983 9 10.2681 9 9.86465C9 9.46116 9.3375 9.13103 9.75 9.13103ZM2.625 6.56335H4.125C4.5375 6.56335 4.875 6.89348 4.875 7.29697C4.875 7.70046 4.5375 8.03059 4.125 8.03059H2.625C2.2125 8.03059 1.875 7.70046 1.875 7.29697C1.875 6.89348 2.2125 6.56335 2.625 6.56335ZM2.625 9.49784H4.875C5.2875 9.49784 5.625 9.82797 5.625 10.2315C5.625 10.6349 5.2875 10.9651 4.875 10.9651H2.625C2.2125 10.9651 1.875 10.6349 1.875 10.2315C1.875 9.82797 2.2125 9.49784 2.625 9.49784Z" fill="#FFA01C"/>
</g>
</svg>
