<svg width="26" height="25" viewBox="0 0 26 25" fill="none" xmlns="http://www.w3.org/2000/svg">
<g id="icon_&#233;&#166;&#150;&#233;&#161;&#181;_&#233;&#128;&#137;&#230;&#139;&#169;">
<path id="Vector" d="M9.56428 2.08111C10.4622 1.38041 11.5672 1 12.7046 1C13.842 1 14.947 1.38041 15.8449 2.08111L21.2295 6.28383C21.8445 6.76378 22.3422 7.37837 22.6845 8.08069C23.0268 8.78302 23.2047 9.55452 23.2046 10.3363V16.8668C23.2046 18.2282 22.6656 19.5339 21.7063 20.4965C20.747 21.4592 19.4459 22 18.0892 22H7.31997C6.64821 22 5.98303 21.8672 5.3624 21.6093C4.74177 21.3513 4.17786 20.9732 3.70285 20.4965C2.74353 19.5339 2.20459 18.2282 2.20459 16.8668V10.3353C2.20452 9.55344 2.38242 8.78194 2.72472 8.07961C3.06701 7.37729 3.56465 6.7627 4.17967 6.28275L9.56428 2.08111ZM8.97628 14.284C8.93536 14.4926 8.93536 14.7433 8.93536 15.2458C8.93536 15.7483 8.93536 15.999 8.97628 16.2076C9.05932 16.6271 9.2645 17.0124 9.56585 17.3148C9.86721 17.6172 10.2512 17.8231 10.6692 17.9064C10.8771 17.9475 11.1269 17.9475 11.6277 17.9475H13.7815C14.2823 17.9475 14.5321 17.9475 14.74 17.9064C15.158 17.8231 15.542 17.6172 15.8433 17.3148C16.1447 17.0124 16.3499 16.6271 16.4329 16.2076C16.4738 15.999 16.4738 15.7483 16.4738 15.2458C16.4738 14.7433 16.4738 14.4926 16.4329 14.284C16.3499 13.8646 16.1447 13.4792 15.8433 13.1768C15.542 12.8744 15.158 12.6685 14.74 12.5852C14.5321 12.5441 14.2823 12.5441 13.7815 12.5441H11.6277C11.1269 12.5441 10.8771 12.5441 10.6692 12.5852C10.2512 12.6685 9.86721 12.8744 9.56585 13.1768C9.2645 13.4792 9.05932 13.8646 8.97628 14.284Z" fill="currentColor"/>
</g>
</svg>
