<svg width="26" height="25" viewBox="0 0 26 25" fill="none" xmlns="http://www.w3.org/2000/svg">
<g id="icon_&#230;&#136;&#145;&#230;&#152;&#175;&#233;&#155;&#135;&#228;&#184;&#187;_&#233;&#128;&#137;&#228;&#184;&#173;" clip-path="url(#clip0_522_2933)">
<path id="Vector" d="M0.166626 12.5C0.166626 19.4 5.76663 25 12.6666 25C19.5666 25 25.1666 19.4 25.1666 12.5C25.1666 5.6 19.5666 0 12.6666 0C5.76663 0 0.166626 5.6 0.166626 12.5Z" fill="#2D6DE8"/>
<g id="Frame">
<path id="Vector_2" d="M20.1906 18.3225H19.3266V9.03201C19.3266 8.76001 19.1556 8.52201 18.8946 8.40301L14.5836 6.27801C14.3406 6.17601 14.0706 6.17601 13.8276 6.27801C13.5576 6.38001 13.3866 6.62651 13.3956 7.96951V19.385H12.5316V6.83901C12.5316 5.46201 12.5316 5.25801 12.2076 5.14751C11.9286 5.03701 11.6226 5.03701 11.3436 5.14751L6.41163 7.60401C6.15063 7.72301 5.97963 7.97801 5.97963 8.25001V18.331H5.11563C4.89963 18.331 4.79163 18.4415 4.79163 18.5435V19.725C4.79163 19.827 4.89963 19.9375 5.11563 19.9375H20.1906C20.2896 19.9375 20.4966 19.827 20.5146 19.725V18.552C20.5416 18.4245 20.3076 18.3225 20.1906 18.3225ZM10.0656 16.8265C10.0656 16.9455 9.96663 17.039 9.84063 17.039H8.62563C8.49963 17.039 8.40063 16.9455 8.40063 16.8265V15.832C8.40063 15.713 8.49963 15.6195 8.62563 15.6195H9.86763C9.99363 15.6195 10.0926 15.713 10.0926 15.832L10.0656 16.8265ZM10.0656 13.826C10.0656 13.945 9.96663 14.0385 9.84063 14.0385H8.62563C8.49963 14.0385 8.40063 13.945 8.40063 13.826V12.8145C8.40063 12.6955 8.49963 12.602 8.62563 12.602H9.86763C9.99363 12.602 10.0926 12.6955 10.0926 12.8145L10.0656 13.826ZM10.0656 10.834C10.0656 10.953 9.96663 11.0465 9.84063 11.0465H8.62563C8.49963 11.0465 8.40063 10.953 8.40063 10.834V9.81401C8.40063 9.69501 8.49963 9.60151 8.62563 9.60151H9.86763C9.99363 9.60151 10.0926 9.69501 10.0926 9.81401L10.0656 10.834ZM17.1666 16.818C17.1666 16.937 17.0676 17.0305 16.9416 17.0305H15.6996C15.5736 17.0305 15.4746 16.937 15.4746 16.818V15.815C15.4746 15.696 15.5736 15.6025 15.6996 15.6025H16.9416C17.0676 15.6025 17.1666 15.696 17.1666 15.815V16.818ZM17.1666 13.8175C17.1666 13.9365 17.0676 14.03 16.9416 14.03H15.6996C15.5736 14.03 15.4746 13.9365 15.4746 13.8175V12.8145C15.4746 12.6955 15.5736 12.602 15.6996 12.602H16.9416C17.0676 12.602 17.1666 12.6955 17.1666 12.8145V13.8175ZM17.1666 10.8255C17.1666 10.9445 17.0676 11.038 16.9416 11.038H15.6996C15.5736 11.038 15.4746 10.9445 15.4746 10.8255V9.81401C15.4746 9.69501 15.5736 9.60151 15.6996 9.60151H16.9416C17.0676 9.60151 17.1666 9.69501 17.1666 9.81401V10.8255Z" fill="white"/>
</g>
</g>
<defs>
<clipPath id="clip0_522_2933">
<rect width="25" height="25" fill="white" transform="translate(0.166626)"/>
</clipPath>
</defs>
</svg>
