<svg width="26" height="25" viewBox="0 0 26 25" fill="none" xmlns="http://www.w3.org/2000/svg">
<g id="icon_&#230;&#136;&#145;&#230;&#152;&#175;&#233;&#155;&#135;&#228;&#184;&#187;">
<g id="Group 609">
<path id="Vector" d="M12.497 8.59967H7.22874C6.92668 8.59967 6.68347 8.84288 6.68347 9.14493C6.68347 9.44699 6.92668 9.6902 7.22874 9.6902H12.497C12.7991 9.6902 13.0423 9.44699 13.0423 9.14493C13.0423 8.8468 12.7991 8.59967 12.497 8.59967ZM12.497 12.5813H7.22874C6.92668 12.5813 6.68347 12.8245 6.68347 13.1265C6.68347 13.4286 6.92668 13.6718 7.22874 13.6718H12.497C12.7991 13.6718 13.0423 13.4286 13.0423 13.1265C13.0423 12.8284 12.7991 12.5813 12.497 12.5813ZM12.497 16.5746H7.22874C6.92668 16.5746 6.68347 16.8179 6.68347 17.1199C6.68347 17.422 6.92668 17.6652 7.22874 17.6652H12.497C12.7991 17.6652 13.0423 17.422 13.0423 17.1199C13.0423 16.8179 12.7991 16.5746 12.497 16.5746ZM19.0833 16.5746H17.7574C17.4554 16.5746 17.2122 16.8179 17.2122 17.1199C17.2122 17.422 17.4554 17.6652 17.7574 17.6652H19.0833C19.3854 17.6652 19.6286 17.422 19.6286 17.1199C19.6286 16.8179 19.3815 16.5746 19.0833 16.5746Z" fill="black"/>
<path id="Vector_2" d="M22.6727 21.0152H21.9039V15.2684C21.9039 14.3308 21.4057 13.4443 20.6093 12.9579L16.0589 10.1766V5.70859C16.0589 4.85735 15.6706 4.06887 14.9919 3.55499C14.3133 3.03719 13.4542 2.87243 12.6304 3.09995L5.96175 5.12017C4.79669 5.44576 3.98075 6.51668 3.98075 7.72881V21.0152H3.21189C2.90984 21.0152 2.66663 21.2584 2.66663 21.5605C2.66663 21.8625 2.90984 22.1057 3.21189 22.1057H22.6688C22.9708 22.1057 23.2141 21.8625 23.2141 21.5605C23.2141 21.2584 22.9708 21.0152 22.6727 21.0152ZM14.9684 21.0152H5.07128V7.72881C5.07128 7.0031 5.56163 6.35977 6.25988 6.16755L12.9247 4.14733C13.415 4.01395 13.925 4.11202 14.329 4.42192C14.733 4.7279 14.9684 5.19863 14.9684 5.70859V21.0152ZM20.8133 21.0152H16.055V11.4515L20.0366 13.8836C20.5152 14.1739 20.8094 14.7035 20.8094 15.2644V21.0152H20.8133Z" fill="black"/>
</g>
</g>
</svg>
