<svg width="26" height="25" viewBox="0 0 26 25" fill="none" xmlns="http://www.w3.org/2000/svg">
<g id="icon_&#230;&#136;&#145;&#230;&#152;&#175;&#233;&#155;&#182;&#229;&#183;&#165;_&#233;&#128;&#137;&#228;&#184;&#173;" clip-path="url(#clip0_522_2927)">
<path id="Vector" d="M0.5 12.5C0.5 19.4 6.1 25 13 25C19.9 25 25.5 19.4 25.5 12.5C25.5 5.6 19.9 0 13 0C6.1 0 0.5 5.6 0.5 12.5Z" fill="#2D6DE8"/>
<path id="Vector_2" d="M20 13.2338V17.5556C20 17.7452 19.9638 17.9331 19.8934 18.1083C19.8231 18.2836 19.72 18.4428 19.59 18.5769C19.46 18.7111 19.3056 18.8175 19.1358 18.89C18.966 18.9626 18.7839 19 18.6001 19H7.40063C7.21679 19 7.03475 18.9626 6.8649 18.89C6.69505 18.8175 6.54073 18.7111 6.41073 18.5769C6.28073 18.4428 6.17762 18.2836 6.10726 18.1083C6.03691 17.9331 6.0007 17.7452 6.0007 17.5556V13.2338C7.9935 14.1438 10.372 14.6667 13.0004 14.6667C15.628 14.6667 18.0058 14.1438 20 13.2338ZM16.8502 6C17.1286 6 17.3957 6.11414 17.5926 6.3173C17.7895 6.52047 17.9001 6.79602 17.9001 7.08333V8.52633H18.6001C18.7839 8.52633 18.966 8.5637 19.1358 8.63629C19.3056 8.70888 19.46 8.81527 19.59 8.9494C19.72 9.08353 19.8231 9.24277 19.8934 9.41801C19.9638 9.59326 20 9.78109 20 9.97078V12.1338C18.0359 13.0633 15.6168 13.5833 13.0004 13.5833C10.3839 13.5833 7.9641 13.0626 6 12.1338L6.0007 9.97078C6.0007 9.78109 6.03691 9.59326 6.10726 9.41801C6.17762 9.24277 6.28073 9.08353 6.41073 8.9494C6.54073 8.81527 6.69505 8.70888 6.8649 8.63629C7.03475 8.5637 7.21679 8.52633 7.40063 8.52633H8.10059V7.08333C8.10061 6.81403 8.19783 6.55438 8.37331 6.35503C8.5488 6.15568 8.78995 6.03091 9.04975 6.00506L9.15054 6H16.8502ZM13.7003 10.6944H12.3004C12.122 10.6946 11.9504 10.7651 11.8207 10.8915C11.6909 11.0179 11.6129 11.1906 11.6024 11.3743C11.5919 11.5581 11.6499 11.7391 11.7644 11.8802C11.8789 12.0214 12.0413 12.1121 12.2185 12.1338L12.3004 12.1389H13.7003C13.886 12.1389 14.064 12.0628 14.1953 11.9274C14.3265 11.7919 14.4003 11.6082 14.4003 11.4167C14.4003 11.2251 14.3265 11.0414 14.1953 10.906C14.064 10.7705 13.886 10.6944 13.7003 10.6944ZM16.5002 7.44444H9.50052V8.52633H16.5002V7.44444Z" fill="white"/>
</g>
<defs>
<clipPath id="clip0_522_2927">
<rect width="25" height="25" fill="white" transform="translate(0.5)"/>
</clipPath>
</defs>
</svg>
