<svg width="26" height="25" viewBox="0 0 26 25" fill="none" xmlns="http://www.w3.org/2000/svg">
<g id="icon_&#230;&#136;&#145;&#230;&#152;&#175;&#233;&#155;&#182;&#229;&#183;&#165;" clip-path="url(#clip0_522_2871)">
<path id="Vector" opacity="0.01" d="M0.5 0H25.5V25H0.5V0Z" fill="#202425"/>
<path id="Vector_2" d="M7.92308 7.61538C7.92308 6.92174 8.19863 6.25651 8.68911 5.76603C9.17959 5.27555 9.84482 5 10.5385 5H14.4615C15.1552 5 15.8204 5.27555 16.3109 5.76603C16.8014 6.25651 17.0769 6.92174 17.0769 7.61538V8.26923H17.7308C18.5978 8.26923 19.4294 8.61367 20.0425 9.22677C20.6556 9.83987 21 10.6714 21 11.5385V18.7308C21 19.5978 20.6556 20.4294 20.0425 21.0425C19.4294 21.6556 18.5978 22 17.7308 22H7.26923C6.40218 22 5.57064 21.6556 4.95754 21.0425C4.34444 20.4294 4 19.5978 4 18.7308V11.5385C4 10.6714 4.34444 9.83987 4.95754 9.22677C5.57064 8.61367 6.40218 8.26923 7.26923 8.26923H7.92308V7.61538ZM9.23077 8.26923H15.7692V7.61538C15.7692 7.26856 15.6315 6.93595 15.3862 6.69071C15.141 6.44547 14.8084 6.30769 14.4615 6.30769H10.5385C10.1916 6.30769 9.85902 6.44547 9.61378 6.69071C9.36854 6.93595 9.23077 7.26856 9.23077 7.61538V8.26923ZM5.30769 15.4615V18.7308C5.30769 19.251 5.51435 19.7499 5.88221 20.1178C6.25007 20.4856 6.749 20.6923 7.26923 20.6923H17.7308C18.251 20.6923 18.7499 20.4856 19.1178 20.1178C19.4856 19.7499 19.6923 19.251 19.6923 18.7308V15.4615H17.0769V16.7692C17.0769 16.9426 17.008 17.1089 16.8854 17.2316C16.7628 17.3542 16.5965 17.4231 16.4231 17.4231C16.2497 17.4231 16.0834 17.3542 15.9607 17.2316C15.8381 17.1089 15.7692 16.9426 15.7692 16.7692V15.4615H9.23077V16.7692C9.23077 16.9426 9.16188 17.1089 9.03926 17.2316C8.91664 17.3542 8.75033 17.4231 8.57692 17.4231C8.40351 17.4231 8.2372 17.3542 8.11458 17.2316C7.99196 17.1089 7.92308 16.9426 7.92308 16.7692V15.4615H5.30769ZM19.6923 14.1538V11.5385C19.6923 11.0182 19.4856 10.5193 19.1178 10.1514C18.7499 9.78358 18.251 9.57692 17.7308 9.57692H7.26923C6.749 9.57692 6.25007 9.78358 5.88221 10.1514C5.51435 10.5193 5.30769 11.0182 5.30769 11.5385V14.1538H7.92308V12.8462C7.92308 12.6727 7.99196 12.5064 8.11458 12.3838C8.2372 12.2612 8.40351 12.1923 8.57692 12.1923C8.75033 12.1923 8.91664 12.2612 9.03926 12.3838C9.16188 12.5064 9.23077 12.6727 9.23077 12.8462V14.1538H15.7692V12.8462C15.7692 12.6727 15.8381 12.5064 15.9607 12.3838C16.0834 12.2612 16.2497 12.1923 16.4231 12.1923C16.5965 12.1923 16.7628 12.2612 16.8854 12.3838C17.008 12.5064 17.0769 12.6727 17.0769 12.8462V14.1538H19.6923Z" fill="#202425"/>
</g>
<defs>
<clipPath id="clip0_522_2871">
<rect width="25" height="25" fill="white" transform="translate(0.5)"/>
</clipPath>
</defs>
</svg>
