<svg width="16" height="16" viewBox="0 0 16 16" fill="none" xmlns="http://www.w3.org/2000/svg">
<g id="icon_&#232;&#129;&#140;&#228;&#184;&#154;">
<path id="Vector" d="M3.25999 2C2.97263 2.00132 2.69742 2.11605 2.49423 2.31924C2.29104 2.52243 2.1763 2.79765 2.17499 3.085V12.915C2.17499 13.2028 2.2893 13.4787 2.49278 13.6822C2.69625 13.8857 2.97223 14 3.25999 14H13.09C13.3773 13.9987 13.6526 13.884 13.8557 13.6808C14.0589 13.4776 14.1737 13.2024 14.175 12.915V3.085C14.1737 2.79765 14.0589 2.52243 13.8557 2.31924C13.6526 2.11605 13.3773 2.00132 13.09 2H3.25999ZM9.71999 9.32C9.67309 9.37238 9.61568 9.41427 9.55149 9.44296C9.4873 9.47164 9.41779 9.48647 9.34749 9.48647C9.27718 9.48647 9.20767 9.47164 9.14349 9.44296C9.0793 9.41427 9.02188 9.37238 8.97499 9.32L7.28499 7.57L5.06999 9.845C5.02309 9.89738 4.96568 9.93927 4.90149 9.96796C4.8373 9.99664 4.76779 10.0115 4.69749 10.0115C4.62718 10.0115 4.55767 9.99664 4.49349 9.96796C4.4293 9.93927 4.37188 9.89738 4.32499 9.845C4.22506 9.74074 4.16927 9.60191 4.16927 9.4575C4.16927 9.31309 4.22506 9.17426 4.32499 9.07L6.90999 6.415C6.95688 6.36262 7.0143 6.32073 7.07849 6.29204C7.14267 6.26336 7.21218 6.24853 7.28249 6.24853C7.35279 6.24853 7.4223 6.26336 7.48649 6.29204C7.55068 6.32073 7.60809 6.36262 7.65499 6.415L9.33999 8.165L11.265 6.165C11.3275 6.09812 11.4072 6.0497 11.4954 6.02501C11.5836 6.00032 11.6768 6.00032 11.765 6.025C11.8557 6.05085 11.938 6.09999 12.0038 6.16753C12.0696 6.23508 12.1165 6.31867 12.14 6.41C12.1631 6.5022 12.1624 6.59877 12.1379 6.69062C12.1134 6.78246 12.066 6.86657 12 6.935L9.71999 9.32Z" fill="#FFA01C"/>
</g>
</svg>
