<svg width="16" height="16" viewBox="0 0 16 16" fill="none" xmlns="http://www.w3.org/2000/svg">
<g id="icon_&#230;&#136;&#145;&#231;&#154;&#132;&#232;&#186;&#171;&#228;&#187;&#189;">
<path id="Vector" d="M13.3885 3H2.61155C1.72207 3 1 3.75844 1 4.69272V12.3091C1 13.2433 1.72207 14 2.61155 14H13.3885C14.2779 14 15 13.2416 15 12.3091V4.69449C15 3.75844 14.2779 3 13.3885 3ZM9.96582 6.36057H12.203C12.3806 6.36057 12.5446 6.61457 12.5446 6.80107C12.5446 6.98757 12.3806 7.24156 12.203 7.24156H9.96582C9.78826 7.24156 9.62423 6.98757 9.62423 6.80107C9.62423 6.61457 9.78826 6.36057 9.96582 6.36057ZM9.96582 8.24512H12.203C12.3806 8.24512 12.5446 8.49911 12.5446 8.68561C12.5446 8.87211 12.3806 9.12611 12.203 9.12611H9.96582C9.78826 9.12611 9.62423 8.87211 9.62423 8.68561C9.62423 8.49911 9.78826 8.24512 9.96582 8.24512ZM2.66059 11.5204C2.48472 11.4849 2.37142 11.3073 2.40524 11.1243C2.61324 9.98401 3.42324 9.1048 4.44631 8.79574C3.91533 8.49734 3.55007 7.91474 3.55007 7.23979C3.55007 6.2611 4.30765 5.46714 5.23771 5.46714C6.16777 5.46714 6.92535 6.26288 6.92535 7.23979C6.92535 7.91652 6.5584 8.49734 6.02911 8.79574C7.05387 9.1048 7.86556 9.98757 8.07018 11.1314C8.10231 11.3144 7.98732 11.492 7.81314 11.5258C7.79285 11.5293 7.77256 11.5311 7.75226 11.5311M13.2802 11.0107H9.96582C9.78826 11.0107 9.62423 10.7567 9.62423 10.5702C9.62423 10.3837 9.78826 10.1297 9.96582 10.1297H13.2802C13.4578 10.1297 13.6218 10.3837 13.6218 10.5702C13.6218 10.7567 13.4578 11.0107 13.2802 11.0107Z" fill="#FFA01C"/>
</g>
</svg>
