<svg width="26" height="25" viewBox="0 0 26 25" fill="none" xmlns="http://www.w3.org/2000/svg">
<g id="icon_&#233;&#153;&#132;&#232;&#191;&#145;&#233;&#169;&#191;&#231;&#171;&#153;_&#233;&#128;&#137;&#228;&#184;&#173;">
<path id="Vector" d="M0.333374 12.5C0.333374 19.4 5.93337 25 12.8334 25C19.7334 25 25.3334 19.4 25.3334 12.5C25.3334 5.6 19.7334 0 12.8334 0C5.93337 0 0.333374 5.6 0.333374 12.5Z" fill="#2D6DE8"/>
<g id="Group 610">
<path id="Vector_2" d="M17.8941 14.6179C17.876 14.636 17.8601 14.6568 17.8422 14.6749L12.8334 19.4075L7.85429 14.7038C7.82645 14.6759 7.80307 14.6458 7.77545 14.6166C5.69061 15.2626 4.33337 16.2935 4.33337 17.4582C4.33337 19.4145 8.13925 20.9999 12.8334 20.9999C17.529 20.9999 21.3334 19.4145 21.3334 17.4582C21.3334 16.2935 19.9776 15.2626 17.8941 14.6179Z" fill="white"/>
<path id="Vector_3" d="M18.4994 9.66653C18.4994 6.54001 15.9634 4 12.8335 4C9.70549 4.00128 7.16675 6.53704 7.16675 9.66801C7.16675 11.2312 7.80106 12.6479 8.82701 13.6732L12.8335 17.4583L16.8406 13.6717C17.3676 13.1465 17.7856 12.5222 18.0704 11.8349C18.3552 11.1475 18.5013 10.4106 18.5002 9.66653H18.4994ZM12.8335 12.5C11.2682 12.5 10.0002 11.2327 10.0002 9.66653C10.0002 8.10189 11.2682 6.83326 12.8335 6.83326C14.3981 6.83326 15.6667 8.10189 15.6667 9.66653C15.6667 11.2327 14.3981 12.5 12.8335 12.5Z" fill="white"/>
</g>
</g>
</svg>
