<svg width="26" height="25" viewBox="0 0 26 25" fill="none" xmlns="http://www.w3.org/2000/svg">
<g id="icon-&#233;&#153;&#132;&#232;&#191;&#145;&#233;&#169;&#191;&#231;&#171;&#153;">
<g id="icon-&#233;&#169;&#191;&#231;&#171;&#153;">
<path id="Vector" d="M21.5 20.672V13.2882C21.5 13.201 21.4828 13.1146 21.4493 13.0341C21.4158 12.9535 21.3667 12.8803 21.3048 12.8186C21.2429 12.757 21.1694 12.7081 21.0885 12.6747C21.0076 12.6413 20.9209 12.6242 20.8334 12.6242H19.66C19.4832 12.6242 19.3137 12.5542 19.1886 12.4297C19.0636 12.3052 18.9934 12.1363 18.9934 11.9602C18.9934 11.784 19.0636 11.6152 19.1886 11.4906C19.3137 11.3661 19.4832 11.2961 19.66 11.2961H20.8334C21.3638 11.2961 21.8725 11.506 22.2476 11.8796C22.6227 12.2532 22.8334 12.7599 22.8334 13.2882V21.336C22.8334 21.5121 22.7631 21.681 22.6381 21.8055C22.5131 21.93 22.3435 22 22.1667 22H3.50004C3.32323 22 3.15366 21.93 3.02864 21.8055C2.90361 21.681 2.83337 21.5121 2.83337 21.336V13.4728C2.83337 12.9444 3.04409 12.4378 3.41916 12.0642C3.79423 11.6906 4.30294 11.4807 4.83337 11.4807H6.16137C6.33818 11.4807 6.50775 11.5507 6.63278 11.6752C6.7578 11.7997 6.82804 11.9686 6.82804 12.1447C6.82804 12.3209 6.7578 12.4897 6.63278 12.6143C6.50775 12.7388 6.33818 12.8088 6.16137 12.8088H4.83337C4.65656 12.8088 4.48699 12.8787 4.36197 13.0032C4.23695 13.1278 4.16671 13.2967 4.16671 13.4728V20.672H21.5Z" fill="black"/>
<path id="Vector_2" d="M13.246 17.0175L17.4782 10.399C17.8812 9.82137 18.0935 9.12321 18.0935 8.30869C18.0935 7.00734 17.5609 5.75928 16.6128 4.83909C15.6647 3.91889 14.3788 3.40193 13.038 3.40193C11.6971 3.40193 10.4112 3.91889 9.46315 4.83909C8.51505 5.75928 7.98241 7.00734 7.98241 8.30869C7.98241 9.28023 8.25974 10.0821 8.77974 10.7088L8.81296 10.7509L13.246 17.0175ZM6.53796 8.30869C6.53796 6.63552 7.22278 5.03088 8.44177 3.84777C9.66076 2.66466 11.3141 2 13.038 2C14.7619 2 16.4152 2.66466 17.6342 3.84777C18.8531 5.03088 19.538 6.63552 19.538 8.30869C19.538 9.39939 19.2419 10.3695 18.6901 11.1616L13.8902 18.669C13.8268 18.7679 13.7391 18.85 13.6348 18.9078C13.5306 18.9655 13.4131 18.9972 13.2931 18.9998C13.1731 19.0025 13.0543 18.976 12.9475 18.9229C12.8406 18.8698 12.7491 18.7917 12.6812 18.6956L7.63574 11.5668C6.91352 10.6878 6.53796 9.58304 6.53796 8.30869Z" fill="black"/>
<path id="Vector_3" d="M13.038 12C12.1097 12 11.2195 11.6313 10.5631 10.9749C9.90671 10.3185 9.53796 9.42826 9.53796 8.5C9.53796 7.57174 9.90671 6.6815 10.5631 6.02513C11.2195 5.36875 12.1097 5 13.038 5C13.9662 5 14.8565 5.36875 15.5128 6.02513C16.1692 6.6815 16.538 7.57174 16.538 8.5C16.538 9.42826 16.1692 10.3185 15.5128 10.9749C14.8565 11.6313 13.9662 12 13.038 12ZM13.038 10.6C13.5949 10.6 14.1291 10.3788 14.5229 9.98492C14.9167 9.5911 15.138 9.05695 15.138 8.5C15.138 7.94305 14.9167 7.4089 14.5229 7.01508C14.1291 6.62125 13.5949 6.4 13.038 6.4C12.481 6.4 11.9469 6.62125 11.553 7.01508C11.1592 7.4089 10.938 7.94305 10.938 8.5C10.938 9.05695 11.1592 9.5911 11.553 9.98492C11.9469 10.3788 12.481 10.6 13.038 10.6Z" fill="black"/>
</g>
</g>
</svg>
