<svg width="16" height="16" viewBox="0 0 16 16" fill="none" xmlns="http://www.w3.org/2000/svg">
<g id="icon_&#231;&#148;&#181;&#232;&#175;&#157;">
<path id="Vector" d="M11.1717 14C10.9457 14 10.7479 13.9717 10.5502 13.887C10.3242 13.8306 8.29041 13.2094 5.52213 10.4706C2.86685 7.81646 2.18891 5.69881 2.13241 5.4447C1.99117 5.13411 1.96293 4.76705 2.04766 4.37176C2.13241 4.0047 2.3019 3.63764 2.55612 3.41176L3.6013 2.36705C3.85552 2.11294 4.16624 2 4.47697 2C4.84418 2 5.21141 2.1694 5.46563 2.50822L6.99101 4.45646C7.24524 4.79529 7.27349 5.33176 7.07575 5.69881L6.31307 6.91294C6.36956 7.13882 6.6238 7.73177 7.44297 8.57883C8.3469 9.42588 8.91186 9.65177 9.10959 9.70823L10.3525 8.97412C10.4937 8.88941 10.6915 8.83295 10.8892 8.83295C11.1434 8.83295 11.3976 8.91764 11.5671 9.03058L13.5162 10.5553C13.7987 10.7812 13.9964 11.12 13.9964 11.4588C14.0247 11.8259 13.8834 12.1647 13.6292 12.4188L12.584 13.4635C12.2733 13.8024 11.7084 14 11.1717 14V14Z" fill="#FFA01C"/>
</g>
</svg>
