<svg width="26" height="25" viewBox="0 0 26 25" fill="none" xmlns="http://www.w3.org/2000/svg">
<g id="icon_&#229;&#133;&#177;&#228;&#186;&#171;&#231;&#148;&#168;&#229;&#183;&#165;">
<g id="Group 506">
<path id="Vector" d="M10.5784 12.5251L11.0505 12.5274C13.0139 12.6016 14.739 13.5916 15.8038 15.1039H17.7914C16.9781 13.479 15.5986 12.2356 13.9492 11.4893C15.2282 10.5273 16.0676 9.00544 16.0676 7.27507C16.0676 4.36166 13.721 2 10.826 2C7.9312 2 5.58469 4.36166 5.58469 7.27507C5.58469 8.97586 6.39817 10.4722 7.63974 11.4369C4.97509 12.6362 3.09517 15.2804 3 18.3893C3 18.8693 3.3909 19.2585 3.87326 19.2585C4.35552 19.2585 4.74658 18.8693 4.74658 18.3893C4.96335 15.2826 7.4683 12.6616 10.5784 12.5251ZM7.32404 7.2633C7.32404 5.32527 8.88528 3.75416 10.811 3.75416C12.7367 3.75416 14.2974 5.3253 14.2974 7.2633C14.2974 9.16944 12.7819 10.7038 10.8998 10.7542H10.8998L10.7119 10.752C8.83479 10.6962 7.32404 9.16576 7.32404 7.2633Z" fill="currentColor"/>
<path id="Vector_2" d="M19.341 11.5825L19.3341 11.5125C20.5415 10.5233 21.2834 8.96922 21.2834 7.27507C21.2834 4.50481 19.1531 2.26974 16.4557 2.05368L16.3938 2.05583C15.9005 2.08235 15.5017 2.47194 15.5017 2.96941C15.5017 3.48388 15.9208 3.90111 16.4379 3.90111L16.4379 3.90108C17.9293 4.29904 19.5139 5.63706 19.5139 7.26324C19.5139 8.49689 18.6601 9.74444 17.6974 10.3536L17.6963 10.3546C17.2415 10.5291 16.9152 10.9647 16.9152 11.4837L16.9134 11.5966C16.9134 12.2416 17.4297 12.7568 18.061 12.7974C18.061 12.7974 18.0931 12.8021 18.0964 12.8063C19.1127 13.2849 20.0794 14.1074 20.8335 15.1039H23C22.2108 13.5527 20.9124 12.3285 19.341 11.5825Z" fill="currentColor"/>
<path id="Vector_3" d="M19.2395 19.8955C18.6874 19.8955 18.2051 20.1828 17.9279 20.6134L16.2577 19.6632C16.3654 19.4522 16.4322 19.2171 16.4322 18.964C16.4322 18.8078 16.402 18.6602 16.3589 18.5176L18.0966 17.5296C18.3814 17.837 18.7861 18.0327 19.2395 18.0327C20.1008 18.0327 20.7992 17.3377 20.7992 16.4803C20.7992 15.6228 20.1007 14.928 19.2395 14.928C18.3782 14.928 17.6797 15.6228 17.6797 16.4803C17.6797 16.6365 17.7099 16.7844 17.753 16.9267L16.0154 17.9146C15.7305 17.6076 15.3259 17.4118 14.8726 17.4118C14.0111 17.4118 13.3128 18.1066 13.3128 18.9641C13.3128 19.8215 14.0111 20.5163 14.8726 20.5163C15.2281 20.5163 15.552 20.3933 15.8143 20.1939L15.8081 20.2059L17.697 21.2801C17.6905 21.3359 17.6798 21.3906 17.6798 21.4477C17.6798 22.3052 18.3782 23 19.2395 23C20.1008 23 20.7993 22.3052 20.7993 21.4477C20.7993 20.5905 20.1008 19.8955 19.2395 19.8955Z" fill="currentColor"/>
</g>
</g>
</svg>
