<svg width="26" height="25" viewBox="0 0 26 25" fill="none" xmlns="http://www.w3.org/2000/svg">
<g id="icon-&#228;&#184;&#170;&#228;&#186;&#186;&#228;&#184;&#173;&#229;&#191;&#131;">
<g id="union">
<path d="M18.1538 7.65385C18.1538 10.7764 15.6225 13.3077 12.5 13.3077C9.37747 13.3077 6.84615 10.7764 6.84615 7.65385C6.84615 4.53131 9.37747 2 12.5 2C15.6225 2 18.1538 4.53131 18.1538 7.65385ZM16.5385 7.65385C16.5385 5.42346 14.7304 3.61538 12.5 3.61538C10.2696 3.61538 8.46154 5.42346 8.46154 7.65385C8.46154 9.88423 10.2696 11.6923 12.5 11.6923C14.7304 11.6923 16.5385 9.88423 16.5385 7.65385Z" fill="black" fill-opacity="0.9"/>
<path d="M22.1328 17.1083C22.6721 17.3659 23 17.9191 23 18.5167V22.1923C23 22.6384 22.6384 23 22.1923 23H2.80769C2.36162 23 2 22.6384 2 22.1923V18.5167C2 17.9191 2.32795 17.3659 2.86724 17.1083C5.79519 15.7099 9.05359 14.9231 12.5 14.9231C15.9464 14.9231 19.2048 15.7099 22.1328 17.1083ZM12.5 16.5385C9.32319 16.5385 6.3201 17.2585 3.61539 18.5413V21.3846H21.3846V18.5413C18.6799 17.2585 15.6768 16.5385 12.5 16.5385Z" fill="black" fill-opacity="0.9"/>
</g>
</g>
</svg>
