<svg width="26" height="25" viewBox="0 0 26 25" fill="none" xmlns="http://www.w3.org/2000/svg">
<g id="icon-&#228;&#184;&#170;&#228;&#186;&#186;&#228;&#184;&#173;&#229;&#191;&#131;_&#233;&#128;&#137;&#228;&#184;&#173;">
<path id="Vector" d="M0 12.5C0 19.4 5.6 25 12.5 25C19.4 25 25 19.4 25 12.5C25 5.6 19.4 0 12.5 0C5.6 0 0 5.6 0 12.5Z" fill="#2D6DE8"/>
<g id="Group 611">
<g id="union">
<path d="M16.5385 9.03846C16.5385 11.2688 14.7304 13.0769 12.5 13.0769C10.2696 13.0769 8.46154 11.2688 8.46154 9.03846C8.46154 6.80808 10.2696 5 12.5 5C14.7304 5 16.5385 6.80808 16.5385 9.03846ZM15.3846 9.03846C15.3846 7.44533 14.0931 6.15385 12.5 6.15385C10.9069 6.15385 9.61538 7.44533 9.61538 9.03846C9.61538 10.6316 10.9069 11.9231 12.5 11.9231C14.0931 11.9231 15.3846 10.6316 15.3846 9.03846Z" fill="white"/>
<path d="M19.3805 15.7917C19.7658 15.9756 20 16.3708 20 16.7976V19.4231C20 19.7417 19.7417 20 19.4231 20H5.57692C5.2583 20 5 19.7417 5 19.4231V16.7976C5 16.3708 5.23425 15.9756 5.61946 15.7917C7.71085 14.7928 10.0383 14.2308 12.5 14.2308C14.9617 14.2308 17.2892 14.7928 19.3805 15.7917ZM12.5 15.3846C10.2309 15.3846 8.08578 15.8989 6.15385 16.8152V18.8462H18.8462V16.8152C16.9142 15.8989 14.7691 15.3846 12.5 15.3846Z" fill="white"/>
</g>
<path id="Vector 95" d="M6.07148 19.4643L5.53577 16.7857L6.6072 15.7143L14.1072 14.6429L18.9286 16.25L19.4643 18.9286L6.07148 19.4643Z" fill="white" stroke="white" stroke-width="0.4"/>
<path id="Vector 94" d="M9.28577 7.67855L11.4286 6.07141L14.1072 6.60713L15.7143 7.67855V9.82141L15.1786 11.4286L13.5715 12.5L10.8929 11.9643L9.28577 10.3571V7.67855Z" fill="white" stroke="white" stroke-width="0.4"/>
</g>
</g>
</svg>
